<svg width="1037" height="242" xmlns="http://www.w3.org/2000/svg" fill="none">

 <g>
  <title>Layer 1</title>
  <path id="svg_1" fill="#CFF0EC" d="m719.585,87.3493l-18.901,0c-1.002,-9.6461 -6.873,-14.3273 -18.901,-14.3273c-11.169,0 -17.039,3.972 -17.039,11.0647c0,5.9579 4.152,9.3624 14.748,11.9158c10.739,2.5534 21.192,5.1065 28.208,8.2275c8.305,3.688 14.892,9.504 14.892,22.839c0,20.71 -15.751,29.931 -37.945,29.931c-23.483,0 -39.807,-10.355 -40.236,-31.492l19.187,0c0.287,9.646 8.448,15.604 21.192,15.604c11.742,0 18.472,-4.965 18.472,-13.334c0,-5.532 -2.864,-9.362 -14.749,-11.916c-11.741,-2.553 -19.33,-4.256 -26.06,-7.234c-10.167,-4.54 -15.894,-11.3488 -15.894,-23.2646c0,-16.8807 11.598,-28.9384 34.795,-28.9384c24.055,0 37.515,12.9088 38.231,30.9243z"/>
  <path id="svg_2" fill="#CFF0EC" d="m445.106,58.1184c10.248,0.3164 20.029,4.1622 24.324,6.2095c0.619,0.295 1.101,0.541 1.435,0.7221c0.159,0.0863 0.275,0.1554 0.352,0.2019l4.87,3.3667l0,-9.7763l19.593,0l0,95.9237l-19.593,0l0,-11.513l-4.939,4.96c-0.079,0.046 -0.183,0.108 -0.316,0.18c-0.402,0.217 -0.999,0.518 -1.769,0.877c-1.535,0.716 -3.704,1.635 -6.306,2.537c-0.316,0.11 -0.643,0.218 -0.992,0.333l-1.035,0.335c-4.608,1.447 -10.154,2.682 -15.806,2.833l-1.165,0.013c-14.007,-0.004 -26.75,-6.661 -35.462,-17.013c-0.38,-0.451 -0.754,-0.915 -1.127,-1.392c-5.529,-7.066 -9.198,-15.65 -10.224,-24.842c-0.111,-1 -0.193,-2.005 -0.242,-3.013l-0.036,-1.019l-0.016,-1.237c0,-0.406 0.006,-0.813 0.016,-1.222c0.031,-1.222 0.106,-2.436 0.227,-3.636c0.081,-0.797 0.185,-1.593 0.306,-2.388c0.121,-0.7959 0.258,-1.5827 0.416,-2.3591c0.713,-3.5099 1.808,-6.904 3.237,-10.1291c0.159,-0.3583 0.323,-0.7156 0.489,-1.0695c1.17,-2.4786 2.539,-4.8516 4.085,-7.0917c0.442,-0.6407 0.899,-1.272 1.369,-1.8898c0.468,-0.6149 0.955,-1.2201 1.454,-1.817c0.251,-0.2994 0.502,-0.5941 0.755,-0.8821c2.043,-2.3298 4.295,-4.4621 6.722,-6.3605c1.215,-0.9502 2.471,-1.8434 3.767,-2.6701c0.645,-0.4122 1.306,-0.8087 1.976,-1.1914c1.333,-0.7624 2.705,-1.4599 4.11,-2.088c0.706,-0.3156 1.417,-0.614 2.132,-0.8912c0.716,-0.2778 1.442,-0.538 2.176,-0.7803c1.833,-0.605 3.713,-1.0936 5.63,-1.4587c0.387,-0.0738 0.772,-0.1432 1.154,-0.2056c1.16,-0.1891 2.332,-0.3329 3.514,-0.4292c1.172,-0.0955 2.36,-0.143 3.557,-0.1437l1.362,0.0164zm1.06,17.681c-16.872,0 -29.738,13.1251 -29.738,31.0056c0,17.709 12.879,30.821 29.738,30.821c16.858,0 29.737,-13.112 29.738,-30.821c-0.001,-17.8805 -12.867,-31.0056 -29.738,-31.0056z" clip-rule="evenodd" fill-rule="evenodd"/>
  <path id="svg_3" fill="#CFF0EC" d="m504.802,8.00003l22.337,0l0,120.26597c0,2.626 0.468,4.48 1.404,5.561c0.936,0.927 2.73,1.391 5.382,1.391l11.829,0l0,21.782l-8.425,0c-12.168,0 -20.671,-1.931 -25.507,-5.793c-4.68,-3.862 -7.02,-11.509 -7.02,-22.941l0,-120.26597z"/>
  <path id="svg_4" fill="#CFF0EC" d="m594.716,56.425c7.043,0.0001 13.486,1.2154 19.309,3.6689l1.105,0.4476c5.464,2.3014 10.153,5.52 14.051,9.6573c4.276,4.4062 7.573,9.648 9.892,15.7055c2.324,6.0684 3.476,12.6963 3.476,19.8677l0,7.975l-49.337,0c-12.7,0 -20.063,3.418 -23.059,9.607c2.724,4.409 6.322,7.991 10.812,10.755c4.773,2.737 10.222,4.121 16.383,4.121c5.07,0 9.754,-1.025 14.07,-3.064c4.307,-2.034 8.025,-5.028 11.158,-9.006l0.742,-0.94l16.295,9.251l-0.894,1.258c-4.768,6.703 -10.833,11.929 -18.177,15.666c-7.341,3.736 -15.141,5.605 -23.382,5.605c-7.311,0 -14.136,-1.283 -20.457,-3.863l-0.01,-0.005c-6.164,-2.568 -11.573,-6.044 -16.214,-10.428l-0.014,-0.014l-0.014,-0.013c-4.517,-4.518 -8.123,-9.869 -10.821,-16.036l-0.004,-0.011l-0.006,-0.011c-2.581,-6.197 -3.866,-12.838 -3.866,-19.906c0,-7.1815 1.218,-13.8183 3.673,-19.8932l0.006,-0.0136c2.567,-6.1634 5.981,-11.4553 10.251,-15.8551c4.392,-4.5218 9.558,-8.0727 15.486,-10.6504l0.009,-0.0041c6.074,-2.5849 12.592,-3.8716 19.537,-3.8716zm28.954,70.598c-0.611,0.775 -1.244,1.516 -1.899,2.221l0.649,-0.717c0.427,-0.485 0.843,-0.987 1.25,-1.504zm-55.314,-24.066c-1.57,0.878 -2.999,1.878 -4.287,3.002c1.473,-1.285 3.129,-2.409 4.97,-3.372l-0.683,0.37zm26.735,-27.7616c-4.079,0 -7.9,0.7793 -11.479,2.3303c-3.595,1.5581 -6.699,3.7094 -9.325,6.455c-2.626,2.746 -4.728,6.0408 -6.297,9.9035l-0.005,0.015c-1.192,2.8419 -1.965,5.8665 -2.318,9.0788c6.111,-4.1343 14.47,-6.1213 24.912,-6.1214l31.063,0c-0.546,-2.726 -1.466,-5.2273 -2.757,-7.5119l-0.011,-0.0218c-1.551,-2.8636 -3.512,-5.298 -5.882,-7.3134l-0.015,-0.0122l-0.015,-0.0136c-2.376,-2.1387 -5.112,-3.806 -8.218,-5.0007l-0.016,-0.0068c-2.957,-1.183 -6.165,-1.7808 -9.637,-1.7808zm-21.599,25.4936c-0.265,0.09 -0.526,0.183 -0.785,0.279c0.517,-0.191 1.047,-0.371 1.587,-0.542l-0.802,0.263zm11.779,-2.2516c-0.339,0.0251 -0.675,0.0528 -1.009,0.0829c0.667,-0.0602 1.346,-0.1094 2.036,-0.1496l-1.027,0.0667zm-12.998,-14.3125c-0.036,0.0411 -0.069,0.0838 -0.105,0.1252c0.046,-0.0533 0.09,-0.1076 0.136,-0.1606l-0.031,0.0354zm1.325,-21.5619c-1.395,0.6856 -2.742,1.4292 -4.043,2.2324c1.626,-1.004 3.326,-1.9154 5.098,-2.7357l-1.055,0.5033z" clip-rule="evenodd" fill-rule="evenodd"/>
  <path id="svg_5" fill="#CFF0EC" d="m834.75,79.3166l0,-5.7264l-9.287,-2.6095c-1.359,-0.4349 -2.492,-1.2323 -3.398,-2.3921c-0.755,-1.3047 -1.132,-2.8269 -1.132,-4.5666l0,-9.4595l20.475,0l0,100.5745l-19.569,0l0,-75.8204l12.911,0z"/>
  <path id="svg_6" fill="#CFF0EC" d="m804.179,89.0187l-46.536,0l0,67.9813l-24.199,0l0,-149l87.603,0l0,21.4187l-63.404,0l0,38.4954l46.536,0l0,21.1046z"/>
  <path id="svg_7" fill="#CFF0EC" d="m898.83,62.3575c10.823,0 20.753,2.7056 27.951,8.9142l0.016,0.0139l0.017,0.0122c7.231,5.9383 10.431,16.0475 10.431,26.1205l0,57.7187l-20.542,0l0,-50.801c0,-7.5821 -2.236,-13.6171 -6.331,-18.1092l-0.402,-0.4304c-4.508,-4.8641 -10.172,-6.9417 -15.643,-6.9418c-11.628,0 -23.069,9.3643 -23.069,23.7524l0,52.53l-20.542,0l0,-90.7159l20.542,0l0.173,11.9558l3.119,-3.7601c4.549,-5.4833 12.204,-9.8166 21.5,-10.2314l0.904,-0.0279l1.876,0z"/>
  <path id="svg_8" fill="#CFF0EC" d="m930.001,71.824c1.305,1.3445 2.455,2.8265 3.459,4.4135c-0.335,-0.529 -0.686,-1.0463 -1.054,-1.5507c-0.184,-0.2524 -0.371,-0.5017 -0.564,-0.7475c-0.384,-0.4906 -0.784,-0.9679 -1.202,-1.4305l-0.639,-0.6848z"/>
  <path id="svg_9" fill="#CFF0EC" d="m924.16,67.1073c0.263,0.1689 0.524,0.3415 0.783,0.5175l0.769,0.5401c-0.508,-0.3667 -1.025,-0.7195 -1.552,-1.0576z"/>
  <path id="svg_10" fill="#CFF0EC" d="m916.506,63.3855c2.111,0.7529 4.132,1.665 6.043,2.7495c-0.273,-0.155 -0.548,-0.3049 -0.826,-0.453c-0.832,-0.4439 -1.684,-0.8564 -2.554,-1.2388c-0.29,-0.1276 -0.582,-0.2521 -0.876,-0.3729c-0.588,-0.2416 -1.184,-0.4697 -1.787,-0.6848z"/>
  <path id="svg_11" fill="#CFF0EC" d="m1035,155.827l-18.49,0l0,-10.846c-7.76,7.449 -18.02,12.019 -29.378,12.019c-24.027,0 -43.343,-20.475 -43.343,-45.318c0,-25.0158 19.32,-45.3203 43.343,-45.3203c11.358,0.0001 21.618,4.5689 29.378,12.017l0,-70.3787l18.49,0l0,147.827zm-51.034,-0.737c0.693,0.055 1.392,0.093 2.094,0.112l-1.067,-0.044c-0.344,-0.018 -0.686,-0.041 -1.027,-0.068zm5.68,-70.2567c-14.761,0 -26.866,11.9244 -26.866,27.0157c0.001,15.226 12.743,27.35 27.536,27.35c14.414,0 25.544,-10.921 26.194,-25.388l0,-2.76c-0.65,-14.4799 -12.47,-26.2176 -26.864,-26.2177zm26.924,37.8877c0.76,-2.121 1.29,-4.371 1.56,-6.721c-0.05,0.47 -0.12,0.936 -0.19,1.397c-0.11,0.693 -0.25,1.377 -0.41,2.05c-0.26,1.121 -0.58,2.214 -0.96,3.274zm-46.33,10.257l0.016,0.016c0.109,0.102 0.222,0.202 0.333,0.303c-0.116,-0.106 -0.234,-0.211 -0.349,-0.319zm-9.162,-18.916l0.003,0.047c0.01,0.124 0.022,0.248 0.033,0.371c-0.012,-0.139 -0.026,-0.278 -0.036,-0.418z" clip-rule="evenodd" fill-rule="evenodd"/>
  <path id="svg_12" fill="#CFF0EC" d="m328.516,9.4272c17.503,0 30.991,4.7116 40.21,12.5572c8.852,7.5331 13.887,18.0548 14.717,30.4022l-25.124,0c-0.932,-6.7937 -3.565,-12.0732 -8.241,-15.6742c-4.924,-3.7917 -11.894,-5.5516 -20.928,-5.5516c-8.377,0 -14.989,1.4886 -19.548,4.4918c-4.645,3.0597 -7.036,7.6147 -7.036,13.3276c0,4.8176 1.707,8.7008 5.546,11.8241c3.742,3.0442 9.442,5.3114 17.318,7.2163l0.005,0.0005c15.897,3.7933 31.18,7.5467 41.389,12.1039l0.001,0.0006c6.012,2.6796 11.265,6.0731 15.025,11.1082c3.746,5.0155 6.111,11.7932 6.111,21.4232c0,14.934 -5.632,25.572 -15.137,32.527c-9.572,7.004 -23.233,10.389 -39.447,10.389c-17.146,0 -31.498,-3.798 -41.605,-11.303c-9.731,-7.225 -15.663,-17.983 -16.314,-32.497l25.494,0c0.567,6.95 3.833,12.645 9.249,16.638c5.732,4.226 13.776,6.479 23.388,6.479c8.842,0 15.995,-1.873 20.976,-5.502c5.04,-3.673 7.721,-9.051 7.721,-15.68c0,-4.386 -1.152,-8.287 -4.78,-11.543c-3.532,-3.1684 -9.273,-5.5972 -18.117,-7.5042c-17.371,-3.7913 -28.419,-6.2855 -38.194,-10.6277c-7.355,-3.2968 -12.981,-7.363 -16.776,-12.6608c-3.785,-5.2835 -5.837,-11.9133 -5.837,-20.5005c0,-12.1654 4.154,-22.4692 12.361,-29.7477c8.226,-7.2948 20.69,-11.69689 37.573,-11.6969z"/>
  <path id="svg_13" fill="#CFF0EC" d="m337.514,133.329c-0.252,0.018 -0.506,0.034 -0.763,0.048l-0.774,0.037c0.26,-0.01 0.518,-0.023 0.774,-0.037l0.763,-0.048z"/>
  <path id="svg_14" fill="#CFF0EC" d="m389.286,116.175c-0.018,0.29 -0.039,0.578 -0.061,0.865c0.005,-0.069 0.011,-0.137 0.016,-0.206l0.045,-0.659z"/>
  <path id="svg_15" fill="#CFF0EC" d="m274,111.071c0.001,0.025 0.002,0.051 0.003,0.076c-0.001,-0.023 -0.002,-0.047 -0.003,-0.071l0,-0.005z"/>
  <path id="svg_16" fill="#CFF0EC" d="m388.413,102.668c0.265,1.238 0.479,2.536 0.639,3.897c-0.096,-0.817 -0.211,-1.61 -0.345,-2.382c-0.09,-0.515 -0.188,-1.02 -0.294,-1.515z"/>
  <path id="svg_17" fill="#CFF0EC" d="m384.071,91.9212c0.229,0.3531 0.452,0.7136 0.668,1.0816c-0.108,-0.1841 -0.218,-0.3661 -0.329,-0.5464l-0.339,-0.5352z"/>
  <path id="svg_18" fill="#CFF0EC" d="m382.621,89.8886c0.254,0.3247 0.501,0.6565 0.743,0.9951c-0.121,-0.1694 -0.243,-0.337 -0.367,-0.5029l-0.376,-0.4922z"/>
  <path id="svg_19" fill="#CFF0EC" d="m321.616,65.5341c1.302,0.3789 2.685,0.7448 4.151,1.0994c-1.222,-0.2955 -2.386,-0.5988 -3.493,-0.9109l-0.658,-0.1885z"/>
  <path id="svg_20" fill="#CFF0EC" d="m315.253,63.3047c1.522,0.6512 3.215,1.2646 5.088,1.8464c-0.416,-0.1293 -0.823,-0.2605 -1.222,-0.393c-0.199,-0.0662 -0.396,-0.1326 -0.591,-0.1996c-1.169,-0.4023 -2.26,-0.8197 -3.275,-1.2538z"/>
  <path id="svg_21" fill="#CFF0EC" d="m311.59,61.4727c0.273,0.1611 0.554,0.3199 0.843,0.4767l0.439,0.2336c-0.446,-0.232 -0.873,-0.4687 -1.282,-0.7103z"/>
  <path id="svg_22" fill="#CFF0EC" d="m307.523,58.3212c0.812,0.8554 1.773,1.6568 2.894,2.4117c-0.623,-0.4194 -1.196,-0.8528 -1.722,-1.3023c-0.21,-0.1798 -0.413,-0.362 -0.609,-0.5469c-0.195,-0.1848 -0.382,-0.3725 -0.563,-0.5625z"/>
  <path id="svg_23" fill="#39737F" d="m98.6276,0l-51.9092,0c0,25.824 -20.9166,46.7586 -46.7184,46.7586l0,51.9539c23.5271,0 48.1811,-10.8252 65.133,-24.5856c-10.374,11.5273 -26.5496,23.2534 -41.6174,28.8981c-14.66426,17.23 -23.5156,39.568 -23.5156,63.975l51.9091,0c0,-25.824 20.9167,-46.759 46.7185,-46.759l0,-51.9535c-11.7591,0 -23.0373,2.0607 -33.4946,5.8394c20.5364,-18.0899 33.4946,-44.5938 33.4946,-74.1269z"/>
  <path id="svg_24" fill="#39737F" d="m208.273,118.516c-26.74,0 -48.417,21.707 -48.417,48.484l-53.798,0c0,-56.529 45.764,-102.3549 102.215,-102.3549l0,53.8709z"/>
  <path id="svg_25" fill="#39737F" d="m108.748,10.2454l45.574,0l0,5.1227l-45.574,0l0,9.6319l45.575,0l0,5l-45.575,0l0,9.4448l45.575,0l-0.001,4.9117l-45.574,0l0,9.5146l145.252,0l0,-53.8711l-145.252,0l0,10.2454z"/>
  <path id="svg_26" fill-opacity="0.7" fill="#CFF0EC" d="m287.35,199.75l0,27.25l-4.15,0l0,-27.25l4.15,0zm-12.85,2.7l0,-3.6l21.5,0l0,3.6l-21.5,0zm28.902,24.55l-4.15,0l0,-28.15l4.15,0l0,28.15zm14.7,-28.15l4.1,0l0,28.15l-4.1,0l0,-28.15zm2.35,15.35l-19.2,0l0,-3.25l19.2,0l0,3.25zm6.898,12.8l0,-28.15l19.5,0l0,3.6l-15.4,0l0,8.55l12,0l0,3.45l-12,0l0,9.15l15.9,0l0,3.4l-20,0zm45.288,0.6c-1.533,0 -3.016,-0.183 -4.45,-0.55c-1.433,-0.367 -2.733,-0.933 -3.9,-1.7c-1.166,-0.767 -2.1,-1.75 -2.8,-2.95c-0.7,-1.233 -1.066,-2.7 -1.1,-4.4l4.2,0c0,0.1 0.034,0.367 0.1,0.8c0.067,0.433 0.234,0.933 0.5,1.5c0.3,0.567 0.734,1.117 1.3,1.65c0.6,0.533 1.417,0.983 2.45,1.35c1.067,0.333 2.4,0.5 4,0.5c1.234,0 2.267,-0.133 3.1,-0.4c0.834,-0.267 1.5,-0.617 2,-1.05c0.5,-0.433 0.85,-0.883 1.05,-1.35c0.234,-0.467 0.35,-0.883 0.35,-1.25c0,-1.033 -0.333,-1.867 -1,-2.5c-0.633,-0.633 -1.5,-1.133 -2.6,-1.5c-1.1,-0.4 -2.316,-0.75 -3.65,-1.05c-1.3,-0.333 -2.6,-0.683 -3.9,-1.05c-1.3,-0.4 -2.5,-0.917 -3.6,-1.55c-1.066,-0.633 -1.9,-1.45 -2.5,-2.45c-0.6,-1.033 -0.866,-2.35 -0.8,-3.95c0.1,-1.533 0.634,-2.85 1.6,-3.95c0.967,-1.1 2.284,-1.933 3.95,-2.5c1.7,-0.6 3.634,-0.9 5.8,-0.9c1.967,0 3.767,0.35 5.4,1.05c1.667,0.7 3,1.75 4,3.15c1.034,1.367 1.534,3.117 1.5,5.25l-4.05,0c0.034,-1.167 -0.2,-2.1 -0.7,-2.8c-0.5,-0.733 -1.15,-1.3 -1.95,-1.7c-0.766,-0.4 -1.566,-0.667 -2.4,-0.8c-0.833,-0.167 -1.583,-0.25 -2.25,-0.25c-1.866,0 -3.416,0.35 -4.65,1.05c-1.2,0.667 -1.816,1.617 -1.85,2.85c-0.033,1.067 0.284,1.917 0.95,2.55c0.667,0.633 1.55,1.133 2.65,1.5c1.1,0.367 2.317,0.7 3.65,1c1.334,0.3 2.65,0.633 3.95,1c1.3,0.367 2.484,0.867 3.55,1.5c1.1,0.6 1.95,1.417 2.55,2.45c0.634,1.033 0.917,2.367 0.85,4c-0.066,1.567 -0.6,2.9 -1.6,4c-1,1.1 -2.333,1.95 -4,2.55c-1.666,0.6 -3.566,0.9 -5.7,0.9zm15.502,-0.6l0,-28.15l7.2,0l7.9,26.3l0.1,0l7.75,-26.3l7.2,0l0,28.15l-4.25,0l0.25,-26.2l-0.1,0l-7.9,26.2l-6.15,0l-7.85,-26.2l-0.1,0l0.2,26.2l-4.25,0zm33.238,0l9.45,-28.15l6.85,0l9.65,28.15l-4.45,0l-8.55,-26.4l-8.55,26.4l-4.4,0zm5.75,-8.4l0.15,-3.3l14,0l0.2,3.3l-14.35,0zm23.185,8.4l0,-28.15l9.85,0c2.4,0 4.434,0.25 6.1,0.75c1.7,0.5 3,1.35 3.9,2.55c0.9,1.167 1.35,2.783 1.35,4.85c0,1.433 -0.25,2.717 -0.75,3.85c-0.466,1.133 -1.183,2.033 -2.15,2.7c-0.966,0.633 -2.166,0.95 -3.6,0.95c1.1,0 1.95,0.217 2.55,0.65c0.634,0.4 1.1,0.95 1.4,1.65c0.3,0.667 0.5,1.383 0.6,2.15c0.1,0.767 0.167,1.517 0.2,2.25c0.067,0.733 0.184,1.367 0.35,1.9c0.167,0.533 0.45,0.9 0.85,1.1c0.434,0.2 1.05,0.15 1.85,-0.15l0,2.5c-0.466,0.4 -1.066,0.667 -1.8,0.8c-0.733,0.167 -1.483,0.117 -2.25,-0.15c-0.733,-0.233 -1.366,-0.733 -1.9,-1.5c-0.5,-0.8 -0.75,-1.95 -0.75,-3.45c0,-1.4 -0.066,-2.567 -0.2,-3.5c-0.1,-0.933 -0.35,-1.65 -0.75,-2.15c-0.4,-0.533 -1.016,-0.917 -1.85,-1.15c-0.833,-0.267 -1.966,-0.4 -3.4,-0.4c-1.4,-0.033 -3.2,-0.017 -5.4,0.05l0,11.9l-4.2,0zm4.2,-15l5.8,0c1.7,0 3.1,-0.1 4.2,-0.3c1.1,-0.233 1.917,-0.683 2.45,-1.35c0.567,-0.7 0.85,-1.717 0.85,-3.05c0,-1.567 -0.333,-2.7 -1,-3.4c-0.666,-0.7 -1.633,-1.133 -2.9,-1.3c-1.266,-0.2 -2.833,-0.3 -4.7,-0.3l-4.7,0l0,9.7zm32.599,-12.25l0,27.25l-4.15,0l0,-27.25l4.15,0zm-12.85,2.7l0,-3.6l21.5,0l0,3.6l-21.5,0zm24.84,24.55l0,-28.15l19.5,0l0,3.6l-15.4,0l0,8.55l12,0l0,3.45l-12,0l0,9.15l15.9,0l0,3.4l-20,0zm23.961,0l0,-28.15l9.85,0c2.4,0 4.434,0.25 6.1,0.75c1.7,0.5 3,1.35 3.9,2.55c0.9,1.167 1.35,2.783 1.35,4.85c0,1.433 -0.25,2.717 -0.75,3.85c-0.466,1.133 -1.183,2.033 -2.15,2.7c-0.966,0.633 -2.166,0.95 -3.6,0.95c1.1,0 1.95,0.217 2.55,0.65c0.634,0.4 1.1,0.95 1.4,1.65c0.3,0.667 0.5,1.383 0.6,2.15c0.1,0.767 0.167,1.517 0.2,2.25c0.067,0.733 0.184,1.367 0.35,1.9c0.167,0.533 0.45,0.9 0.85,1.1c0.434,0.2 1.05,0.15 1.85,-0.15l0,2.5c-0.466,0.4 -1.066,0.667 -1.8,0.8c-0.733,0.167 -1.483,0.117 -2.25,-0.15c-0.733,-0.233 -1.366,-0.733 -1.9,-1.5c-0.5,-0.8 -0.75,-1.95 -0.75,-3.45c0,-1.4 -0.066,-2.567 -0.2,-3.5c-0.1,-0.933 -0.35,-1.65 -0.75,-2.15c-0.4,-0.533 -1.016,-0.917 -1.85,-1.15c-0.833,-0.267 -1.966,-0.4 -3.4,-0.4c-1.4,-0.033 -3.2,-0.017 -5.4,0.05l0,11.9l-4.2,0zm4.2,-15l5.8,0c1.7,0 3.1,-0.1 4.2,-0.3c1.1,-0.233 1.917,-0.683 2.45,-1.35c0.567,-0.7 0.85,-1.717 0.85,-3.05c0,-1.567 -0.333,-2.7 -1,-3.4c-0.666,-0.7 -1.633,-1.133 -2.9,-1.3c-1.266,-0.2 -2.833,-0.3 -4.7,-0.3l-4.7,0l0,9.7zm48.176,-13.15l4.4,0l-2.2,5.4l-5.85,22.75l-6.75,0l-7.4,-28.15l4.45,0l6.35,26.3l7,-26.3zm17.75,0l4.45,0l-7.55,28.15l-6.7,0l-5.75,-22.75l-2.25,-5.4l4.45,0l6.9,26.3l6.45,-26.3zm3.652,28.15l9.45,-28.15l6.85,0l9.65,28.15l-4.45,0l-8.55,-26.4l-8.55,26.4l-4.4,0zm5.75,-8.4l0.15,-3.3l14,0l0.2,3.3l-14.35,0zm28.156,-1.65l-9.65,-18.1l4.65,0l7.1,14.3l7.05,-14.3l4.65,0l-9.8,18.1l-4,0zm-0.05,10.05l0,-10.7l4.15,0l0,10.7l-4.15,0zm36.45,-27.25l0,27.25l-4.15,0l0,-27.25l4.15,0zm-12.85,2.7l0,-3.6l21.5,0l0,3.6l-21.5,0zm36.451,25.25c-4.5,0 -7.933,-1.317 -10.3,-3.95c-2.366,-2.667 -3.55,-6.25 -3.55,-10.75c0,-2.967 0.5,-5.533 1.5,-7.7c1.034,-2.2 2.567,-3.9 4.6,-5.1c2.067,-1.233 4.65,-1.85 7.75,-1.85c4.5,0 7.917,1.333 10.25,4c2.367,2.633 3.55,6.183 3.55,10.65c0,2.9 -0.533,5.467 -1.6,7.7c-1.033,2.2 -2.566,3.917 -4.6,5.15c-2.033,1.233 -4.566,1.85 -7.6,1.85zm-0.05,-4c2.167,0 3.967,-0.45 5.4,-1.35c1.467,-0.933 2.55,-2.2 3.25,-3.8c0.734,-1.633 1.1,-3.483 1.1,-5.55c0,-2.1 -0.35,-3.95 -1.05,-5.55c-0.7,-1.633 -1.783,-2.9 -3.25,-3.8c-1.433,-0.933 -3.25,-1.4 -5.45,-1.4c-3.2,0 -5.633,0.967 -7.3,2.9c-1.633,1.933 -2.45,4.55 -2.45,7.85c0,2.033 0.35,3.867 1.05,5.5c0.7,1.6 1.767,2.867 3.2,3.8c1.467,0.933 3.3,1.4 5.5,1.4zm40.047,3.9c-2.733,0 -5.116,-0.567 -7.15,-1.7c-2,-1.133 -3.55,-2.783 -4.65,-4.95c-1.1,-2.167 -1.633,-4.8 -1.6,-7.9c0.067,-3.133 0.684,-5.8 1.85,-8c1.167,-2.2 2.8,-3.867 4.9,-5c2.134,-1.133 4.584,-1.7 7.35,-1.7c3.7,0 6.617,0.833 8.75,2.5c2.134,1.633 3.517,4.033 4.15,7.2l-4,0.55c-0.333,-1.533 -0.933,-2.767 -1.8,-3.7c-0.866,-0.933 -1.916,-1.6 -3.15,-2c-1.2,-0.433 -2.516,-0.65 -3.95,-0.65c-3.366,0 -5.883,0.967 -7.55,2.9c-1.666,1.9 -2.5,4.45 -2.5,7.65c0,3.433 0.9,6.1 2.7,8c1.834,1.867 4.4,2.8 7.7,2.8c1.5,0 2.884,-0.25 4.15,-0.75c1.267,-0.533 2.334,-1.317 3.2,-2.35c0.867,-1.067 1.417,-2.383 1.65,-3.95l-6.95,0l0,-3.15l11.05,0l0,13.6l-2.85,0l-0.95,-5.55l-0.1,0c-0.233,0.633 -0.616,1.317 -1.15,2.05c-0.5,0.7 -1.166,1.367 -2,2c-0.833,0.6 -1.85,1.1 -3.05,1.5c-1.166,0.4 -2.516,0.6 -4.05,0.6zm18.461,-0.6l0,-28.15l9.85,0c2.4,0 4.433,0.25 6.1,0.75c1.7,0.5 3,1.35 3.9,2.55c0.9,1.167 1.35,2.783 1.35,4.85c0,1.433 -0.25,2.717 -0.75,3.85c-0.467,1.133 -1.183,2.033 -2.15,2.7c-0.967,0.633 -2.167,0.95 -3.6,0.95c1.1,0 1.95,0.217 2.55,0.65c0.633,0.4 1.1,0.95 1.4,1.65c0.3,0.667 0.5,1.383 0.6,2.15c0.1,0.767 0.167,1.517 0.2,2.25c0.067,0.733 0.183,1.367 0.35,1.9c0.167,0.533 0.45,0.9 0.85,1.1c0.433,0.2 1.05,0.15 1.85,-0.15l0,2.5c-0.467,0.4 -1.067,0.667 -1.8,0.8c-0.733,0.167 -1.483,0.117 -2.25,-0.15c-0.733,-0.233 -1.367,-0.733 -1.9,-1.5c-0.5,-0.8 -0.75,-1.95 -0.75,-3.45c0,-1.4 -0.067,-2.567 -0.2,-3.5c-0.1,-0.933 -0.35,-1.65 -0.75,-2.15c-0.4,-0.533 -1.017,-0.917 -1.85,-1.15c-0.833,-0.267 -1.967,-0.4 -3.4,-0.4c-1.4,-0.033 -3.2,-0.017 -5.4,0.05l0,11.9l-4.2,0zm4.2,-15l5.8,0c1.7,0 3.1,-0.1 4.2,-0.3c1.1,-0.233 1.917,-0.683 2.45,-1.35c0.567,-0.7 0.85,-1.717 0.85,-3.05c0,-1.567 -0.333,-2.7 -1,-3.4c-0.667,-0.7 -1.633,-1.133 -2.9,-1.3c-1.267,-0.2 -2.833,-0.3 -4.7,-0.3l-4.7,0l0,9.7zm34.098,15.7c-4.5,0 -7.933,-1.317 -10.3,-3.95c-2.366,-2.667 -3.55,-6.25 -3.55,-10.75c0,-2.967 0.5,-5.533 1.5,-7.7c1.034,-2.2 2.567,-3.9 4.6,-5.1c2.067,-1.233 4.65,-1.85 7.75,-1.85c4.5,0 7.917,1.333 10.25,4c2.367,2.633 3.55,6.183 3.55,10.65c0,2.9 -0.533,5.467 -1.6,7.7c-1.033,2.2 -2.566,3.917 -4.6,5.15c-2.033,1.233 -4.566,1.85 -7.6,1.85zm-0.05,-4c2.167,0 3.967,-0.45 5.4,-1.35c1.467,-0.933 2.55,-2.2 3.25,-3.8c0.734,-1.633 1.1,-3.483 1.1,-5.55c0,-2.1 -0.35,-3.95 -1.05,-5.55c-0.7,-1.633 -1.783,-2.9 -3.25,-3.8c-1.433,-0.933 -3.25,-1.4 -5.45,-1.4c-3.2,0 -5.633,0.967 -7.3,2.9c-1.633,1.933 -2.45,4.55 -2.45,7.85c0,2.033 0.35,3.867 1.05,5.5c0.7,1.6 1.767,2.867 3.2,3.8c1.467,0.933 3.3,1.4 5.5,1.4zm33.17,-24.85l4.4,0l-2.2,5.4l-5.85,22.75l-6.75,0l-7.4,-28.15l4.45,0l6.35,26.3l7,-26.3zm17.75,0l4.45,0l-7.55,28.15l-6.7,0l-5.75,-22.75l-2.25,-5.4l4.45,0l6.9,26.3l6.45,-26.3zm22.481,28.15l-4.15,0l0,-28.15l4.15,0l0,28.15zm-0.6,-28.15l7.45,0c3.133,0 5.533,0.767 7.2,2.3c1.7,1.533 2.55,3.833 2.55,6.9c0,2.767 -0.867,4.917 -2.6,6.45c-1.733,1.533 -4.117,2.3 -7.15,2.3l-7.45,0l0,-3.15l6.95,0c2,0 3.567,-0.467 4.7,-1.4c1.167,-0.933 1.75,-2.35 1.75,-4.25c0,-1.967 -0.567,-3.4 -1.7,-4.3c-1.133,-0.933 -2.717,-1.4 -4.75,-1.4l-6.95,0l0,-3.45zm24.207,27.25l0,-26.35l4.1,0l0,26.35l-4.1,0zm-3.85,0.9l0,-3.6l11.75,0l0,3.6l-11.75,0zm0,-24.55l0,-3.6l11.75,0l0,3.6l-11.75,0zm21.468,24.55l-4.15,0l0,-28.15l4.15,0l0,28.15zm-0.6,-28.15l7.45,0c3.133,0 5.533,0.767 7.2,2.3c1.7,1.533 2.55,3.833 2.55,6.9c0,2.767 -0.867,4.917 -2.6,6.45c-1.734,1.533 -4.117,2.3 -7.15,2.3l-7.45,0l0,-3.15l6.95,0c2,0 3.566,-0.467 4.7,-1.4c1.166,-0.933 1.75,-2.35 1.75,-4.25c0,-1.967 -0.567,-3.4 -1.7,-4.3c-1.134,-0.933 -2.717,-1.4 -4.75,-1.4l-6.95,0l0,-3.45zm20.157,28.15l0,-28.15l19.5,0l0,3.6l-15.4,0l0,8.55l12,0l0,3.45l-12,0l0,9.15l15.9,0l0,3.4l-20,0zm24.261,-0.4l0,-27.75l4.15,0l0,27.75l-4.15,0zm0,0.4l0,-3.6l18.9,0l0,3.6l-18.9,0zm26.238,-0.9l0,-26.35l4.1,0l0,26.35l-4.1,0zm-3.85,0.9l0,-3.6l11.75,0l0,3.6l-11.75,0zm0,-24.55l0,-3.6l11.75,0l0,3.6l-11.75,0zm36.864,-3.6l4.25,0l0,28.15l-7.85,0l-11.846,-26.3l-0.1,0l0,26.3l-4.25,0l0,-28.15l7.35,0l12.346,26.3l0.1,0l0,-26.3zm9.14,28.15l0,-28.15l19.5,0l0,3.6l-15.4,0l0,8.55l12,0l0,3.45l-12,0l0,9.15l15.9,0l0,3.4l-20,0z"/>
  <rect id="svg_27" height="53" width="789" y="185.60001" x="248.29999" stroke="#000" fill="#fff"/>
 </g>
</svg>