<svg width="671" height="99" viewBox="0 0 671 99" fill="none" xmlns="http://www.w3.org/2000/svg">
<path fill-rule="evenodd" clip-rule="evenodd" d="M325.507 41.9709C325.538 81.3357 325.552 84.0201 325.732 85.2013C326.476 90.0634 327.664 92.933 329.735 94.8633C332.127 97.0931 336.619 98.481 342.759 98.8876C343.664 98.9476 346.145 98.9974 348.273 98.9984L352.14 99V91.7721V84.5442H348.034C343.722 84.5442 342.569 84.4602 341.687 84.0824C341.049 83.8094 340.717 83.4324 340.381 82.6021L340.126 81.9707L340.097 40.9853L340.069 -7.62939e-05H332.771H325.474L325.507 41.9709ZM474.483 49.5V99H482.383H490.284V76.4403V53.8805H505.426H520.568V46.8169V39.7533H505.426H490.284V26.995V14.2367H510.912H531.54V7.11829V-7.62939e-05H503.012H474.483V49.5ZM658.903 23.3536L658.875 46.7074L658.162 46.0459C654.113 42.2908 649.082 39.887 643.459 39.0212C641.716 38.7528 637.874 38.7541 636.108 39.0236C631.083 39.7905 626.685 41.722 622.749 44.8908C621.505 45.893 619.228 48.1843 618.223 49.4452C616.178 52.0135 614.258 55.5741 613.186 58.7869C610.476 66.9082 611.166 75.8168 615.092 83.4153C616.609 86.3515 618.443 88.8144 620.87 91.1722C625.095 95.2782 630.191 97.8324 635.943 98.7264C637.527 98.9726 640.505 99.0548 642.142 98.8974C648.238 98.3115 653.403 95.9886 658.354 91.6052L658.93 91.0953V94.6644V98.2334H664.965H671V49.1167V-7.62939e-05H664.965H658.931L658.903 23.3536ZM206.097 1.10875C198.901 1.68785 192.78 3.7271 188.102 7.1046C186.745 8.08464 184.543 10.1848 183.496 11.4984C180.654 15.0639 178.994 19.163 178.265 24.4214C177.974 26.5186 178.002 30.757 178.322 32.8317C179.117 38.003 180.869 41.5653 184.255 44.9004C188.094 48.6804 193.718 51.472 202.454 53.9333C204.91 54.6252 210.131 55.8982 214.601 56.895C221.133 58.3519 223.245 58.9747 225.707 60.1708C227.586 61.0834 228.655 61.8109 229.807 62.9607C231.655 64.804 232.405 66.6539 232.511 69.6284C232.66 73.8407 231.493 76.9681 228.805 79.554C226.255 82.0079 222.958 83.3919 218.057 84.067C216.167 84.3272 211.654 84.3277 209.681 84.068C201.103 82.9384 195.42 78.973 193.356 72.678C193.092 71.8737 192.601 69.5403 192.601 69.092C192.601 69.0343 189.15 68.9933 184.3 68.9933H175.999L176.073 70.1159C176.25 72.8295 176.983 76.3753 177.845 78.6924C181.421 88.3018 189.625 94.5269 201.927 96.9656C206.088 97.7903 209.621 98.0659 214.976 97.9831C219.061 97.9199 220.652 97.7888 223.937 97.2453C238.403 94.8513 247.026 87.1258 248.93 74.8523C249.515 71.0813 249.418 66.5624 248.677 63.0249C247.282 56.3748 243.407 51.731 236.438 48.3569C231.526 45.9787 224.937 43.9226 211.857 40.6868C206.417 39.3407 204.555 38.8077 202.586 38.0325C197.679 36.1007 195.15 33.7934 194.062 30.2572C193.784 29.3547 193.766 29.1653 193.767 27.214C193.768 24.7502 193.916 24.0384 194.79 22.2859C196.615 18.6314 200.351 16.5061 206.481 15.6362C208.082 15.4089 214.28 15.4469 215.862 15.6936C221.754 16.6124 225.526 18.8542 227.842 22.8129C228.712 24.2994 229.602 26.8549 229.852 28.5829C229.891 28.854 229.948 29.162 229.977 29.2674C230.029 29.4477 230.515 29.459 238.21 29.459H246.388L246.313 28.665C245.701 22.1863 243.451 16.6372 239.633 12.195C234.041 5.68772 225.692 1.95167 214.832 1.09692C213.181 0.967036 207.767 0.974374 206.097 1.10875ZM531.47 37.6712C531.436 37.7609 531.43 39.4241 531.458 41.3673C531.511 45.089 531.571 45.5845 532.087 46.595C532.35 47.1095 532.969 47.7294 533.572 48.0829C533.815 48.2249 535.148 48.6668 536.535 49.0648C537.921 49.4627 539.391 49.886 539.799 50.0055L540.543 50.2226L540.513 52.1063L540.483 53.99L536.286 54.0187L532.089 54.0474V72.6086V97.7954H538.453H544.817V64.339V37.5083H538.175C532.395 37.5083 531.525 37.5294 531.47 37.6712ZM380.778 32.314C371.079 33.3765 363.028 38.2595 357.732 46.2921C354.847 50.6679 353.092 55.5128 352.391 61.0436C352.131 63.0959 352.135 68.0856 352.4 70.0337C353.075 75.0163 354.46 79.0876 356.841 83.0968C359.043 86.8026 361.625 89.7154 364.852 92.1335C369.716 95.7783 374.926 97.8963 381.108 98.7421C382.841 98.9792 387.735 99.0146 389.447 98.8024C398.316 97.7031 406.312 93.2173 411.642 86.3512C412.758 84.9124 413.292 84.0974 413.186 83.9934C413.035 83.8461 402.854 77.9734 402.749 77.9734C402.697 77.9734 402.312 78.3986 401.893 78.9181C400.882 80.1742 399.054 81.9074 397.778 82.8202C396.505 83.7307 394.059 84.962 392.519 85.4678C387.303 87.1804 380.89 86.7509 376.149 84.3714C373.455 83.0193 370.576 80.4162 368.708 77.6436L368.045 76.6593L368.226 76.3034C368.806 75.1646 370.236 73.6167 371.387 72.8835C373.135 71.7695 375.087 71.099 378.145 70.5621C379.084 70.3973 380.973 70.3753 397.222 70.3399L415.257 70.3006L415.201 65.8414C415.14 61.0371 415.016 59.6169 414.404 56.7247C412.407 47.2855 406.738 39.5762 398.904 35.6476C395.658 34.0198 392.26 32.9514 388.788 32.4669C387.29 32.2579 382.182 32.1604 380.778 32.314ZM437.506 32.272C436.447 32.3509 433.782 32.7682 432.682 33.0272C427.066 34.3497 422.717 37.3697 420.239 41.6698C419.241 43.4009 418.424 45.811 418.067 48.0763C417.845 49.4867 417.877 53.6605 418.119 54.9467C419.101 60.1441 421.935 63.7335 427.096 66.3171C430.726 68.1344 434.439 69.2615 443.486 71.293C445.417 71.7267 447.57 72.2689 448.27 72.4979C452.138 73.763 454.041 75.3684 454.63 77.8639C454.844 78.7699 454.791 80.815 454.528 81.8213C453.498 85.7601 450.012 87.9901 444.282 88.3751C440.729 88.6139 437.303 88.0472 434.699 86.7903C431.352 85.1746 429.401 82.4307 428.995 78.7674L428.919 78.083H422.679H416.439V78.4472C416.439 78.6476 416.491 79.3498 416.556 80.0078C417.504 89.7325 423.75 96.1017 434.429 98.2331C436.742 98.6948 438.653 98.8921 441.511 98.9644C448.885 99.1511 455.174 97.7201 459.506 94.8695C464 91.9119 466.577 87.5932 467.25 81.888C467.421 80.4322 467.324 76.4646 467.086 75.2069C466.199 70.5212 463.842 67.2841 459.583 64.8996C456.234 63.0245 452.025 61.6431 442.051 59.1461C439.632 58.5405 437.089 57.8551 436.4 57.6228C431.901 56.106 429.922 54.1463 429.746 51.0327C429.665 49.6152 429.854 48.5923 430.393 47.5166C431.413 45.4835 433.6 44.1186 436.793 43.5218C438.097 43.2782 442.18 43.1838 443.615 43.364C447.784 43.8877 450.479 45.5205 451.934 48.4048C452.402 49.3338 452.815 50.6535 452.987 51.776L453.125 52.6759H459.287H465.449L465.407 52.0462C465.067 46.9674 463.194 42.5666 459.951 39.2242C456.038 35.1923 450.789 32.936 443.87 32.3115C442.72 32.2077 438.702 32.1827 437.506 32.272ZM282.904 33.4095C277.357 34.0224 271.889 36.2864 267.433 39.816C266.92 40.2223 265.683 41.3723 264.685 42.3716C251.343 55.7223 251.835 77.0776 265.78 89.9477C267.972 91.9701 270.219 93.4923 273.084 94.8938C275.954 96.2981 278.554 97.1181 281.642 97.5936C283.476 97.876 287.311 97.9312 289.104 97.7011C292.78 97.2291 296.94 96.099 300.507 94.6035C303.095 93.5182 303.318 93.3721 305.069 91.6146L306.66 90.0168L306.714 93.7692L306.769 97.5216H313.133H319.497V65.6532V33.7848H313.133H306.769L306.74 36.9881C306.724 38.7498 306.689 40.1913 306.662 40.1913C306.635 40.1913 305.908 39.6917 305.045 39.081C301.516 36.5813 295.74 34.4712 290.091 33.6176C288.331 33.3516 284.446 33.2391 282.904 33.4095ZM578.51 36.3063C574.42 36.9273 570.729 38.6927 567.984 41.3418C567.342 41.9614 566.298 43.1096 565.664 43.8934C565.031 44.6772 564.476 45.2841 564.431 45.2423C564.387 45.2004 564.338 43.4431 564.322 41.3372L564.293 37.5083H557.6H550.906L550.879 67.6527L550.851 97.797L557.572 97.7689L564.293 97.7406L564.352 78.9591C564.411 60.2587 564.412 60.1735 564.645 59.2369C565.41 56.1584 566.638 53.8466 568.602 51.7869C570.217 50.0934 572.361 48.698 574.552 47.9142C577.875 46.7258 581.557 46.8446 584.796 48.2449C586.756 49.0919 589.179 51.0816 590.66 53.0591C591.487 54.163 592.656 56.5511 593.072 57.9872C593.849 60.6687 593.792 59.0786 593.833 79.4245L593.869 97.7954H600.562H607.255L607.223 76.9057L607.191 56.016L606.943 54.6471C606.131 50.1563 604.687 46.716 602.546 44.1655C599.69 40.7645 595.53 38.3039 590.572 37.0827C587.808 36.4019 586.324 36.2327 582.727 36.1885C580.348 36.1593 579.283 36.1891 578.51 36.3063ZM382.15 44.7494C378.091 45.3494 374.823 46.806 372.046 49.253C369.053 51.8902 366.766 55.7599 365.687 60.0133C365.408 61.1155 365.081 63.0934 365.189 63.0351C365.224 63.0159 365.675 62.7483 366.192 62.4404C368.653 60.9742 372.007 59.8861 375.512 59.4168C378.073 59.074 379.86 59.0282 390.688 59.0278C401.068 59.0276 401.638 59.0176 401.584 58.836C401.553 58.7306 401.449 58.3334 401.353 57.9535C400.915 56.2265 399.941 54.1138 398.765 52.3432C397.768 50.8419 395.583 48.6967 393.944 47.6098C392.001 46.3213 390.01 45.4734 387.823 45.0017C386.999 44.8242 386.275 44.7642 384.619 44.7366C383.442 44.7169 382.331 44.7227 382.15 44.7494ZM285.538 45.127C275 46.0007 267.462 55.129 267.909 66.4745C268.028 69.4993 268.561 71.9513 269.648 74.4774C272.213 80.4394 277.166 84.5007 283.401 85.7548C285.089 86.0943 288.278 86.174 290.037 85.9208C299.005 84.6299 305.503 77.5649 306.504 68.0159C306.665 66.4763 306.578 63.3254 306.334 61.875C304.736 52.3836 297.896 45.8629 288.762 45.1227C287.242 44.9995 287.073 44.9997 285.538 45.127ZM639.657 51.1374C634.121 51.7753 629.274 54.9321 626.433 59.7507C623.795 64.2228 623.228 69.6967 624.878 74.7428C626.354 79.257 629.96 83.3486 634.285 85.416C635.593 86.0409 637.396 86.6307 638.851 86.9092C640.426 87.2108 643.667 87.186 645.19 86.8607C647.59 86.3478 649.445 85.589 651.241 84.3846C655.109 81.7922 657.564 78.0537 658.617 73.1549C658.831 72.1575 658.865 71.6708 658.87 69.4862C658.875 67.2858 658.844 66.8123 658.626 65.7411C657.135 58.401 651.579 52.7088 644.592 51.363C643.27 51.1084 640.864 50.9984 639.657 51.1374Z" fill="#CFF0EC"/>
<path d="M57.6618 -7.62939e-05H27.3132C27.3132 15.3088 15.0845 27.7191 -0.000488281 27.7191V58.5182C13.7545 58.5182 28.1684 52.1008 38.0793 43.9435C32.0142 50.777 22.5572 57.7284 13.7478 61.0745C5.17441 71.2887 -0.000488281 84.5309 -0.000488281 99H30.348C30.348 83.6911 42.5769 71.2807 57.6618 71.2807V40.4817C50.7868 40.4817 44.1931 41.7034 38.0793 43.9435C50.0858 33.2195 57.6618 17.5076 57.6618 -7.62939e-05Z" fill="#39737F"/>
<path d="M121.765 70.2581C106.132 70.2581 93.4585 83.1263 93.4585 99H62.0062C62.0062 65.4888 88.7614 38.3225 121.765 38.3225V70.2581Z" fill="#39737F"/>
<path d="M63.5787 6.07355H90.2236L90.2236 9.11036H63.5787L63.5787 14.8203H90.2236L90.2236 17.7844H63.5787L63.5787 23.3834H90.2236L90.2236 26.2951H63.5787L63.5787 31.9355H148.5V-7.62939e-05H63.5787L63.5787 6.07355Z" fill="#39737F"/>
</svg>
